<svg width="590" height="338" viewBox="0 0 590 338" fill="none" xmlns="http://www.w3.org/2000/svg">
<path d="M199.942 84.9853V75.638C199.942 74.7233 199.207 73.9828 198.301 73.9828H195.915C195.217 73.9828 194.598 73.5041 194.442 72.8174C193.616 69.1879 192.21 65.7818 190.313 62.7122C189.934 62.0994 190.006 61.3096 190.512 60.7989L192.189 59.1073C192.83 58.4607 192.83 57.4129 192.189 56.7663L185.636 50.1575C184.995 49.511 183.956 49.511 183.314 50.1575L181.639 51.8474C181.132 52.358 180.349 52.4301 179.741 52.048C176.698 50.1338 173.319 48.7139 169.718 47.8795C169.037 47.7217 168.563 47.0989 168.563 46.3949V43.9965C168.563 43.0818 167.828 42.3413 166.922 42.3413H157.653C156.746 42.3413 156.011 43.0827 156.011 43.9965V46.3949C156.011 47.0989 155.537 47.7227 154.856 47.8804C151.255 48.7139 147.875 50.1338 144.831 52.048C144.224 52.4301 143.441 52.358 142.934 51.8474L141.26 50.1594C140.619 49.5128 139.58 49.5128 138.939 50.1594L132.385 56.7682C131.744 57.4147 131.744 58.4625 132.385 59.1091L134.061 60.7989C134.568 61.3096 134.639 62.0994 134.26 62.7122C132.363 65.7827 130.957 69.1897 130.13 72.8192C129.974 73.5059 129.356 73.9847 128.657 73.9847H126.274C125.367 73.9847 124.633 74.7261 124.633 75.6398V84.9872C124.633 85.9019 125.368 86.6423 126.274 86.6423H128.658C129.356 86.6423 129.975 87.1211 130.13 87.8069C130.958 91.4373 132.365 94.8443 134.261 97.9121C134.64 98.5249 134.568 99.3146 134.062 99.8253L132.384 101.518C131.742 102.164 131.742 103.212 132.384 103.859L138.937 110.469C139.578 111.115 140.618 111.115 141.259 110.469L142.938 108.775C143.444 108.264 144.227 108.192 144.834 108.574C147.877 110.485 151.254 111.901 154.854 112.735C155.535 112.892 156.01 113.515 156.01 114.22V116.631C156.01 117.546 156.745 118.287 157.651 118.287H166.92C167.827 118.287 168.561 117.545 168.561 116.631V114.22C168.561 113.515 169.036 112.892 169.717 112.735C173.316 111.902 176.693 110.485 179.735 108.574C180.343 108.192 181.126 108.264 181.631 108.775L183.312 110.469C183.953 111.116 184.993 111.116 185.633 110.469L192.187 103.86C192.828 103.213 192.828 102.164 192.187 101.519L190.507 99.8262C190.001 99.3155 189.929 98.5258 190.308 97.913C192.205 94.8443 193.611 91.4391 194.437 87.8087C194.594 87.122 195.211 86.6433 195.91 86.6433H198.298C199.207 86.6405 199.942 85.8991 199.942 84.9853ZM162.285 106.666C147.851 106.666 136.166 94.8589 136.166 80.3035C136.166 65.7699 147.851 53.964 162.285 53.964C176.719 53.964 188.404 65.7708 188.404 80.3035C188.404 94.8598 176.719 106.666 162.285 106.666Z" stroke="#DEE3FC" stroke-width="0.7896" stroke-miterlimit="10"/>
<path d="M242.572 116.626V110.256C242.572 109.633 242.071 109.128 241.453 109.128H239.828C239.351 109.128 238.93 108.802 238.824 108.334C238.261 105.861 237.303 103.539 236.01 101.447C235.752 101.029 235.801 100.491 236.145 100.144L237.288 98.9912C237.725 98.5507 237.725 97.8366 237.288 97.3953L232.822 92.8912C232.385 92.4507 231.677 92.4507 231.239 92.8912L230.097 94.043C229.752 94.3913 229.218 94.4397 228.804 94.1798C226.73 92.8748 224.427 91.9072 221.974 91.3391C221.51 91.2315 221.187 90.8074 221.187 90.3268V88.6926C221.187 88.0698 220.686 87.5646 220.068 87.5646H213.752C213.134 87.5646 212.633 88.0698 212.633 88.6926V90.3268C212.633 90.8065 212.309 91.2315 211.845 91.3391C209.391 91.9072 207.088 92.8748 205.013 94.1789C204.599 94.4388 204.066 94.3895 203.72 94.0421L202.58 92.8921C202.143 92.4517 201.435 92.4517 200.997 92.8921L196.531 97.3962C196.094 97.8366 196.094 98.5507 196.531 98.9921L197.673 100.144C198.018 100.491 198.067 101.03 197.809 101.448C196.516 103.54 195.557 105.863 194.995 108.336C194.888 108.804 194.467 109.13 193.991 109.13H192.367C191.749 109.13 191.248 109.635 191.248 110.258V116.628C191.248 117.251 191.749 117.756 192.367 117.756H193.992C194.467 117.756 194.889 118.083 194.995 118.55C195.559 121.024 196.518 123.346 197.811 125.437C198.068 125.855 198.02 126.393 197.675 126.741L196.532 127.895C196.095 128.335 196.095 129.05 196.532 129.49L200.998 133.994C201.435 134.435 202.144 134.435 202.581 133.994L203.726 132.84C204.07 132.492 204.605 132.442 205.018 132.703C207.092 134.005 209.393 134.971 211.846 135.538C212.31 135.646 212.634 136.07 212.634 136.55V138.194C212.634 138.816 213.135 139.322 213.753 139.322H220.069C220.687 139.322 221.188 138.816 221.188 138.194V136.55C221.188 136.07 221.512 135.646 221.976 135.538C224.428 134.971 226.73 134.005 228.803 132.703C229.217 132.443 229.751 132.492 230.095 132.84L231.24 133.995C231.677 134.435 232.386 134.435 232.823 133.995L237.289 129.491C237.726 129.05 237.726 128.335 237.289 127.895L236.144 126.741C235.799 126.394 235.75 125.855 236.009 125.437C237.301 123.346 238.259 121.025 238.823 118.551C238.93 118.083 239.35 117.757 239.827 117.757H241.453C242.071 117.755 242.572 117.25 242.572 116.626ZM216.91 130.389C207.629 130.389 200.115 122.797 200.115 113.437C200.115 104.092 207.629 96.4997 216.91 96.4997C226.191 96.4997 233.705 104.092 233.705 113.437C233.705 122.797 226.191 130.389 216.91 130.389Z" fill="#DEE3FC"/>
<path d="M123.624 285.287C125.315 285.287 126.686 283.905 126.686 282.199C126.686 280.494 125.315 279.112 123.624 279.112C121.932 279.112 120.562 280.494 120.562 282.199C120.562 283.905 121.932 285.287 123.624 285.287Z" fill="#7E22CE"/>
<path d="M533.847 200.914C535.538 200.914 536.909 199.531 536.909 197.826C536.909 196.12 535.538 194.738 533.847 194.738C532.156 194.738 530.785 196.12 530.785 197.826C530.785 199.531 532.156 200.914 533.847 200.914Z" fill="#7E22CE"/>
<path d="M527.724 90.6522C529.415 90.6522 530.786 89.2697 530.786 87.5644C530.786 85.859 529.415 84.4766 527.724 84.4766C526.033 84.4766 524.662 85.859 524.662 87.5644C524.662 89.2697 526.033 90.6522 527.724 90.6522Z" fill="#7E22CE"/>
<path d="M417.629 52.0247C418.69 52.0247 419.55 51.1575 419.55 50.0877C419.55 49.018 418.69 48.1508 417.629 48.1508C416.568 48.1508 415.708 49.018 415.708 50.0877C415.708 51.1575 416.568 52.0247 417.629 52.0247Z" fill="#7E22CE"/>
<path d="M135.612 24.2863C135.612 25.356 134.752 26.2233 133.691 26.2233C132.63 26.2233 131.771 25.356 131.771 24.2863C131.771 23.2166 132.63 22.3494 133.691 22.3494C134.752 22.3494 135.612 23.2166 135.612 24.2863Z" fill="#7E22CE"/>
<path d="M178.124 143.564C178.124 144.634 177.264 145.501 176.203 145.501C175.142 145.501 174.282 144.634 174.282 143.564C174.282 142.494 175.142 141.627 176.203 141.627C177.264 141.627 178.124 142.494 178.124 143.564Z" fill="#7E22CE"/>
<path d="M107.658 285.288C107.658 286.358 106.798 287.225 105.737 287.225C104.676 287.225 103.816 286.358 103.816 285.288C103.816 284.218 104.676 283.351 105.737 283.351C106.798 283.351 107.658 284.218 107.658 285.288Z" fill="#7E22CE"/>
<path d="M488.931 287.112C490.622 287.112 491.993 285.73 491.993 284.024C491.993 282.319 490.622 280.937 488.931 280.937C487.24 280.937 485.869 282.319 485.869 284.024C485.869 285.73 487.24 287.112 488.931 287.112Z" fill="#7E22CE"/>
<path d="M554.04 287.112C555.732 287.112 557.102 285.73 557.102 284.024C557.102 282.319 555.732 280.937 554.04 280.937C552.349 280.937 550.979 282.319 550.979 284.024C550.979 285.73 552.349 287.112 554.04 287.112Z" fill="#7E22CE"/>
<path d="M188.403 18.9541C190.094 18.9541 191.465 17.5716 191.465 15.8663C191.465 14.1609 190.094 12.7784 188.403 12.7784C186.712 12.7784 185.341 14.1609 185.341 15.8663C185.341 17.5716 186.712 18.9541 188.403 18.9541Z" fill="#7E22CE"/>
<path d="M399.673 156.359C399.673 158.64 397.839 160.491 395.576 160.491C393.313 160.491 391.479 158.641 391.479 156.359C391.479 154.076 393.312 152.227 395.576 152.227C397.839 152.227 399.673 154.077 399.673 156.359Z" fill="#7E22CE"/>
<path d="M97.4839 105.266C97.4839 107.548 95.65 109.398 93.3865 109.398C91.1239 109.398 89.2891 107.548 89.2891 105.266C89.2891 102.984 91.123 101.134 93.3865 101.134C95.65 101.135 97.4839 102.984 97.4839 105.266Z" fill="#7E22CE"/>
<path d="M85.9554 43.5919H80.8026C80.4707 43.5919 80.2021 43.3211 80.2021 42.9864V37.7911C80.2021 37.4564 80.4707 37.1855 80.8026 37.1855H85.9554C86.2872 37.1855 86.5558 37.4564 86.5558 37.7911V42.9864C86.5558 43.3211 86.2872 43.5919 85.9554 43.5919Z" fill="white"/>
<path d="M94.4544 43.5915H89.3016C88.9698 43.5915 88.7012 43.3207 88.7012 42.986V37.7907C88.7012 37.456 88.9698 37.1852 89.3016 37.1852H94.4544C94.7863 37.1852 95.0549 37.456 95.0549 37.7907V42.986C95.0549 43.3207 94.7863 43.5915 94.4544 43.5915Z" fill="white"/>
<path d="M102.953 43.5915H97.8016C97.4698 43.5915 97.2012 43.3207 97.2012 42.986V37.7907C97.2012 37.456 97.4698 37.1852 97.8016 37.1852H102.953C103.285 37.1852 103.554 37.456 103.554 37.7907V42.986C103.554 43.3207 103.285 43.5915 102.953 43.5915Z" fill="white"/>
<path d="M518.74 268.597H513.587C513.255 268.597 512.986 268.326 512.986 267.992V262.796C512.986 262.462 513.255 262.191 513.587 262.191H518.74C519.071 262.191 519.34 262.462 519.34 262.796V267.992C519.34 268.326 519.071 268.597 518.74 268.597Z" fill="#DEE3FC"/>
<path d="M527.239 268.597H522.086C521.754 268.597 521.485 268.326 521.485 267.992V262.797C521.485 262.462 521.754 262.191 522.086 262.191H527.239C527.57 262.191 527.839 262.462 527.839 262.797V267.992C527.839 268.326 527.57 268.597 527.239 268.597Z" fill="#DEE3FC"/>
<path d="M535.737 268.597H530.584C530.252 268.597 529.983 268.326 529.983 267.992V262.797C529.983 262.462 530.252 262.191 530.584 262.191H535.737C536.068 262.191 536.337 262.462 536.337 262.797V267.992C536.337 268.326 536.068 268.597 535.737 268.597Z" fill="#DEE3FC"/>
<path d="M125.849 265.086H120.696C120.364 265.086 120.096 264.815 120.096 264.481V259.285C120.096 258.951 120.364 258.68 120.696 258.68H125.849C126.181 258.68 126.449 258.951 126.449 259.285V264.481C126.449 264.814 126.18 265.086 125.849 265.086Z" fill="#DEE3FC"/>
<path d="M134.347 265.086H129.194C128.862 265.086 128.594 264.815 128.594 264.481V259.285C128.594 258.951 128.862 258.68 129.194 258.68H134.347C134.679 258.68 134.947 258.951 134.947 259.285V264.481C134.947 264.814 134.679 265.086 134.347 265.086Z" fill="#DEE3FC"/>
<path d="M142.845 265.086H137.693C137.361 265.086 137.093 264.815 137.093 264.481V259.285C137.093 258.951 137.361 258.68 137.693 258.68H142.845C143.177 258.68 143.446 258.951 143.446 259.285V264.481C143.446 264.814 143.177 265.086 142.845 265.086Z" fill="#DEE3FC"/>
<path d="M356.178 320.155H233.823C223.16 320.155 214.517 311.438 214.517 300.686V26.0445C214.517 15.2919 223.16 6.57556 233.823 6.57556H356.178C366.84 6.57556 375.484 15.2919 375.484 26.0445V300.686C375.484 311.438 366.84 320.155 356.178 320.155Z" fill="#3945BA"/>
<path d="M355.561 315.698H234.443C225.103 315.698 217.532 308.063 217.532 298.645V26.3745C217.532 16.956 225.103 9.32129 234.443 9.32129H355.561C364.901 9.32129 372.472 16.956 372.472 26.3745V298.645C372.471 308.063 364.9 315.698 355.561 315.698Z" fill="white"/>
<path d="M365.688 25.8398V297.793C365.688 304.171 360.56 309.342 354.236 309.342H235.766C229.441 309.342 224.313 304.171 224.313 297.793V25.8398C224.313 19.4617 229.441 14.291 235.766 14.291H255.521C256.617 14.291 257.62 14.9157 258.111 15.9042L260.209 20.1274C261.165 22.0762 263.138 23.2964 265.284 23.2964H324.717C326.863 23.2964 328.836 22.0762 329.792 20.1274L331.89 15.9042C332.381 14.9157 333.383 14.291 334.48 14.291H354.236C360.56 14.291 365.688 19.4608 365.688 25.8398Z" fill="#DEE3FC"/>
<path d="M319.942 18.3556H272.073C270.96 18.3556 270.058 17.4455 270.058 16.3229C270.058 15.2003 270.96 14.2902 272.073 14.2902H319.942C321.055 14.2902 321.958 15.2003 321.958 16.3229C321.958 17.4455 321.055 18.3556 319.942 18.3556Z" fill="#DEE3FC"/>
<path d="M346.881 299.903H240.36C236.175 299.903 232.783 296.482 232.783 292.262V254.332C232.783 250.112 236.175 246.691 240.36 246.691H346.881C351.066 246.691 354.458 250.112 354.458 254.332V292.262C354.458 296.482 351.066 299.903 346.881 299.903Z" stroke="#698BD1" stroke-miterlimit="10" stroke-linecap="round" stroke-linejoin="round" stroke-dasharray="2.84 2.84"/>
<path d="M341.483 169.326H288.641C285.623 169.326 283.176 166.859 283.176 163.814V137.478C283.176 134.434 285.623 131.966 288.641 131.966H341.483C344.502 131.966 346.949 134.434 346.949 137.478V163.814C346.949 166.859 344.502 169.326 341.483 169.326Z" stroke="#698BD1" stroke-miterlimit="10" stroke-linecap="round" stroke-linejoin="round" stroke-dasharray="2.84 2.84"/>
<path d="M352.859 237.84H243.725C240.128 237.84 237.213 234.9 237.213 231.273V184.855C237.213 181.228 240.128 178.288 243.725 178.288H352.859C356.455 178.288 359.371 181.228 359.371 184.855V231.273C359.371 234.9 356.455 237.84 352.859 237.84Z" fill="#4B5A9B"/>
<path d="M354.458 180.027V226.472C354.458 230.092 351.546 233.02 347.956 233.02H239.285C235.695 233.02 232.783 230.092 232.783 226.472V180.027C232.783 176.406 235.695 173.47 239.285 173.47H347.956C351.546 173.47 354.458 176.406 354.458 180.027Z" fill="#7F95F4"/>
<path d="M274.815 228.18H242.8C240.372 228.18 238.404 226.195 238.404 223.747V191.461C238.404 189.014 240.372 187.028 242.8 187.028H274.815C277.243 187.028 279.211 189.013 279.211 191.461V223.747C279.211 226.195 277.243 228.18 274.815 228.18Z" fill="white"/>
<path d="M312.757 192.236H284.562C283.795 192.236 283.174 191.609 283.174 190.836C283.174 190.063 283.795 189.436 284.562 189.436H312.757C313.524 189.436 314.146 190.063 314.146 190.836C314.146 191.609 313.524 192.236 312.757 192.236Z" fill="#B400B8"/>
<path d="M299.909 197.826H284.562C283.795 197.826 283.174 197.199 283.174 196.426C283.174 195.653 283.795 195.026 284.562 195.026H299.909C300.676 195.026 301.297 195.653 301.297 196.426C301.297 197.199 300.676 197.826 299.909 197.826Z" fill="#B400B8"/>
<path d="M347.086 197.826H305.558C304.791 197.826 304.17 197.199 304.17 196.426C304.17 195.653 304.791 195.026 305.558 195.026H347.086C347.853 195.026 348.474 195.653 348.474 196.426C348.474 197.199 347.852 197.826 347.086 197.826Z" fill="#B400B8"/>
<path d="M308.308 203.415H284.564C283.797 203.415 283.176 202.789 283.176 202.015C283.176 201.242 283.797 200.616 284.564 200.616H308.308C309.075 200.616 309.696 201.242 309.696 202.015C309.696 202.789 309.074 203.415 308.308 203.415Z" fill="#B400B8"/>
<path d="M328.464 203.415H313.537C312.77 203.415 312.148 202.789 312.148 202.015C312.148 201.242 312.77 200.616 313.537 200.616H328.464C329.231 200.616 329.852 201.242 329.852 202.015C329.852 202.789 329.23 203.415 328.464 203.415Z" fill="#B400B8"/>
<path d="M347.087 203.415H333.34C332.573 203.415 331.952 202.789 331.952 202.015C331.952 201.242 332.573 200.616 333.34 200.616H347.087C347.854 200.616 348.475 201.242 348.475 202.015C348.475 202.789 347.853 203.415 347.087 203.415Z" fill="#B400B8"/>
<path d="M347.085 209.004H284.562C283.795 209.004 283.174 208.378 283.174 207.605C283.174 206.831 283.795 206.205 284.562 206.205H347.085C347.852 206.205 348.473 206.831 348.473 207.605C348.473 208.378 347.851 209.004 347.085 209.004Z" fill="#B400B8"/>
<path d="M318.974 214.594H284.564C283.797 214.594 283.176 213.968 283.176 213.194C283.176 212.421 283.797 211.794 284.564 211.794H318.974C319.741 211.794 320.362 212.421 320.362 213.194C320.362 213.968 319.74 214.594 318.974 214.594Z" fill="#B400B8"/>
<path d="M347.085 214.594H324.521C323.754 214.594 323.133 213.968 323.133 213.194C323.133 212.421 323.754 211.794 324.521 211.794H347.085C347.852 211.794 348.473 212.421 348.473 213.194C348.473 213.968 347.851 214.594 347.085 214.594Z" fill="#B400B8"/>
<path d="M304.78 220.183H284.562C283.795 220.183 283.174 219.556 283.174 218.783C283.174 218.01 283.795 217.383 284.562 217.383H304.78C305.546 217.383 306.168 218.01 306.168 218.783C306.168 219.556 305.546 220.183 304.78 220.183Z" fill="#B400B8"/>
<path d="M330.47 220.183H310.252C309.486 220.183 308.864 219.556 308.864 218.783C308.864 218.01 309.486 217.383 310.252 217.383H330.47C331.237 217.383 331.858 218.01 331.858 218.783C331.858 219.556 331.237 220.183 330.47 220.183Z" fill="#B400B8"/>
<path d="M347.086 220.183H335.354C334.587 220.183 333.966 219.556 333.966 218.783C333.966 218.01 334.587 217.383 335.354 217.383H347.086C347.852 217.383 348.474 218.01 348.474 218.783C348.474 219.556 347.851 220.183 347.086 220.183Z" fill="#B400B8"/>
<path d="M312.757 225.773H284.562C283.795 225.773 283.174 225.147 283.174 224.373C283.174 223.6 283.795 222.973 284.562 222.973H312.757C313.524 222.973 314.146 223.6 314.146 224.373C314.146 225.146 313.524 225.773 312.757 225.773Z" fill="#B400B8"/>
<path d="M347.086 192.236H318.891C318.124 192.236 317.503 191.609 317.503 190.836C317.503 190.063 318.124 189.436 318.891 189.436H347.086C347.853 189.436 348.475 190.063 348.475 190.836C348.475 191.609 347.852 192.236 347.086 192.236Z" fill="#B400B8"/>
<path d="M354.458 180.027V181.978H232.783V180.027C232.783 176.406 235.695 173.47 239.285 173.47H347.956C351.546 173.47 354.458 176.406 354.458 180.027Z" fill="#3052CE"/>
<path d="M331.525 177.877C331.525 178.717 330.85 179.398 330.017 179.398C329.184 179.398 328.51 178.717 328.51 177.877C328.51 177.038 329.184 176.357 330.017 176.357C330.85 176.357 331.525 177.038 331.525 177.877Z" fill="#DEE3FC"/>
<path d="M339.238 177.877C339.238 178.717 338.563 179.398 337.73 179.398C336.897 179.398 336.223 178.717 336.223 177.877C336.223 177.038 336.897 176.357 337.73 176.357C338.563 176.357 339.238 177.038 339.238 177.877Z" fill="#DEE3FC"/>
<path d="M346.948 177.877C346.948 178.717 346.273 179.398 345.44 179.398C344.607 179.398 343.933 178.717 343.933 177.877C343.933 177.038 344.607 176.357 345.44 176.357C346.272 176.358 346.948 177.038 346.948 177.877Z" fill="#DEE3FC"/>
<path d="M270.454 169.326H246.373C242.802 169.326 239.906 166.406 239.906 162.805V138.521C239.906 134.919 242.802 131.999 246.373 131.999H270.454C274.025 131.999 276.921 134.918 276.921 138.521V162.805C276.92 166.407 274.025 169.326 270.454 169.326Z" stroke="#7E22CE" stroke-width="0.8956" stroke-miterlimit="10"/>
<path d="M252.639 145.264L247.307 150.642L252.682 156.062" stroke="#7E22CE" stroke-width="1.6716" stroke-miterlimit="10" stroke-linecap="round" stroke-linejoin="round"/>
<path d="M264.187 145.264L269.52 150.642L264.146 156.062" stroke="#7E22CE" stroke-width="1.6716" stroke-miterlimit="10" stroke-linecap="round" stroke-linejoin="round"/>
<path d="M260.91 145.264L255.916 156.062" stroke="#7E22CE" stroke-width="1.6716" stroke-miterlimit="10" stroke-linecap="round" stroke-linejoin="round"/>
<path d="M354.458 40.8924V116.829C354.458 120.951 351.148 124.289 347.061 124.289H240.18C236.102 124.289 232.783 120.951 232.783 116.829V40.8924C232.783 36.7704 236.102 33.4327 240.18 33.4327H347.061C351.148 33.4327 354.458 36.7704 354.458 40.8924Z" fill="#B400B8"/>
<path d="M329.816 75.2084C339.555 75.2084 347.45 67.2468 347.45 57.4256C347.45 47.6044 339.555 39.6428 329.816 39.6428C320.077 39.6428 312.182 47.6044 312.182 57.4256C312.182 67.2468 320.077 75.2084 329.816 75.2084Z" fill="#F0F4FF"/>
<path d="M304.305 124.289H240.18C236.102 124.289 232.783 120.952 232.783 116.83V104.874L260.844 55.8575C262.309 53.2949 265.98 53.2949 267.445 55.8575L288.633 92.8639L304.368 120.35C305.128 121.663 305.01 123.158 304.305 124.289Z" fill="white"/>
<path d="M331.96 124.289H270.639L288.634 92.8637L298.329 75.929C299.649 73.6218 302.95 73.6218 304.27 75.929L331.96 124.289Z" fill="#F0F4FF"/>
<path d="M453.588 265.394H406.314V337.038H453.588V265.394Z" fill="#3B47BC"/>
<path d="M453.589 337.039H471.689V265.394H453.589V337.039Z" fill="#7E22CE"/>
<path d="M469.467 268.145H456.178V270.431H469.467V268.145Z" fill="#B400B8"/>
<path d="M469.467 273.058H456.178V275.344H469.467V273.058Z" fill="#B400B8"/>
<path d="M469.467 277.969H456.178V280.255H469.467V277.969Z" fill="#B400B8"/>
<path d="M469.467 282.881H456.178V285.167H469.467V282.881Z" fill="#B400B8"/>
<path d="M469.467 287.793H456.178V290.079H469.467V287.793Z" fill="#B400B8"/>
<path d="M469.467 292.706H456.178V294.992H469.467V292.706Z" fill="#B400B8"/>
<path d="M469.467 297.617H456.178V299.903H469.467V297.617Z" fill="#B400B8"/>
<path d="M469.467 302.529H456.178V304.815H469.467V302.529Z" fill="#B400B8"/>
<path d="M469.467 307.441H456.178V309.727H469.467V307.441Z" fill="#B400B8"/>
<path d="M469.467 312.353H456.178V314.639H469.467V312.353Z" fill="#B400B8"/>
<path d="M469.467 317.265H456.178V319.551H469.467V317.265Z" fill="#B400B8"/>
<path d="M469.467 322.176H456.178V324.463H469.467V322.176Z" fill="#B400B8"/>
<path d="M469.467 327.089H456.178V329.375H469.467V327.089Z" fill="#B400B8"/>
<path d="M469.467 332.001H456.178V334.287H469.467V332.001Z" fill="#B400B8"/>
<path d="M398.634 337.038H422.659C422.659 337.038 424.002 332.724 421.092 327.379C421.092 327.379 419.158 328.943 413.366 327.885C413.366 327.885 410.949 329.955 409.279 330.764C407.601 331.584 397.986 333.488 398.634 337.038Z" fill="#281616"/>
<path d="M400.309 268.72C401.861 278.058 409.021 309.648 412.099 328.311C417.725 328.794 420.427 328.143 421.859 327.81C421.578 321.303 421.023 305.737 421.088 298.91C421.195 287.373 421.732 272.159 416.696 263.809L399.762 265.154C399.865 266.056 399.958 266.789 400.041 267.313C400.123 267.817 400.216 268.281 400.309 268.72Z" fill="#002C54"/>
<path d="M355.176 337.038H379.201C379.201 337.038 380.544 332.724 377.634 327.379C377.634 327.379 375.7 328.943 369.908 327.885C369.908 327.885 367.491 329.955 365.821 330.764C364.143 331.584 354.528 333.488 355.176 337.038Z" fill="#281616"/>
<path d="M369.213 327.765C373.804 328.911 377.129 328.799 378.704 328.62C379.981 321.119 381.999 304.613 383.816 296.877C386.633 284.853 389.392 268.315 387.475 262.414L370.818 258.196C370.762 258.727 369.406 309.342 369.213 327.765Z" fill="#052635"/>
<path d="M435.509 240.977C435.175 237.657 434.79 235.232 434.79 235.232L416.179 239.826L400.37 243.458C394.509 244.775 387.429 246.36 381.188 247.782C374.184 249.387 369.534 254.752 371.067 261.825L372.823 270.404C382.619 270.269 428.678 265.817 432.617 263.811C437.068 261.544 438.408 253.529 435.509 240.977Z" fill="#052635"/>
<path d="M463.292 240.977C462.957 237.657 461.352 234.095 461.352 234.095L443.961 239.826L428.152 243.458C422.291 244.775 415.211 246.36 408.97 247.782C401.966 249.387 397.316 254.752 398.85 261.825L400.605 270.404C410.401 270.269 451.347 268.83 460.4 263.811C464.768 261.388 466.19 253.529 463.292 240.977Z" fill="#002C54"/>
<path d="M411.201 214.079C411.201 214.079 419.467 210.314 421.742 214.09C422.988 216.157 422.127 219.997 419.307 221.61C416.487 223.222 400.556 230.017 385.52 233.806C385.52 233.806 384.877 231.697 383.843 229.481C383.843 229.481 390.588 226.659 397.294 221.91C404 217.159 411.201 214.079 411.201 214.079Z" fill="#E5918F"/>
<path d="M413.268 188.048L406.184 216.583C406.184 216.583 406.916 223.797 414.141 220.256C421.365 216.715 426.153 193.982 426.153 193.982L413.268 188.048Z" fill="#E5918F"/>
<path d="M425.254 204.008C424.378 203.794 423.542 203.561 422.735 203.316C421.908 203.073 421.123 202.818 420.377 202.554C413.645 200.227 410.007 197.432 410.007 197.432C412.123 188.153 414.673 181.923 416.94 177.818C417.001 177.716 417.061 177.624 417.112 177.513C417.173 177.412 417.233 177.31 417.294 177.208C418.513 175.166 420.266 173.448 422.221 172.036C422.423 171.894 422.615 171.761 422.816 171.619L423.653 186.517L423.794 188.052L425.254 204.008Z" fill="white"/>
<path d="M425.253 204.007C424.377 203.794 423.54 203.56 422.733 203.316C421.907 203.072 421.121 202.818 420.375 202.554C421.788 192.518 423.066 186.213 423.066 186.213L423.791 188.052L425.253 204.007Z" fill="#C7E5F2"/>
<path d="M467.075 178.245C466.904 182.656 466.138 189.739 465.473 196.853C465.261 199.109 465.059 201.376 464.888 203.561C464.767 204.922 462.732 212.188 462.651 213.49C462.289 219.709 459.265 224.364 462.128 233.835C462.813 236.101 462.984 237.27 462.984 238.205C462.984 238.855 462.147 239.537 461.815 239.719C460.616 240.42 458.257 240.908 455.395 241.264H455.385C449.752 241.955 442.153 242.087 437.567 242.087C431.41 242.087 422.169 241.101 421 239.537C419.932 238.104 420.919 236.02 421.423 233.144C423.69 220.166 422.884 213.398 422.743 204.028C422.743 203.795 422.733 203.561 422.733 203.317C422.502 188.866 421.554 176.498 422.219 172.037C422.421 171.895 422.613 171.762 422.815 171.62C423.792 170.949 424.75 170.35 425.677 169.821C425.757 169.78 425.858 169.72 425.959 169.658C426.241 169.496 426.533 169.344 426.805 169.191C426.906 169.13 427.017 169.078 427.128 169.028C429.214 168.001 432.257 166.904 434.001 166.294C434.222 166.223 434.424 166.152 434.595 166.101C436.238 166 438.021 165.979 439.947 166.03C441.62 166.081 444.179 166.304 446.961 166.67C446.97 166.67 446.97 166.67 446.97 166.67C450.115 167.077 453.551 167.676 456.282 168.428C456.282 168.428 456.312 168.438 456.333 168.448C456.846 168.611 460.182 169.871 463.659 173.621C464.817 174.861 466.006 176.385 467.075 178.245Z" fill="white"/>
<path d="M462.127 233.834C462.813 236.1 462.984 237.269 462.984 238.204C462.984 238.854 462.147 239.536 461.814 239.718C460.615 240.419 458.257 240.907 455.395 241.263C456.574 241.121 458.61 239.234 458.61 237.533C458.61 236.342 457.078 228.295 457.501 223.102C457.924 217.92 458.761 209.668 457.168 203.062C455.566 196.456 454.064 187.767 454.064 187.767L463.043 193.234C463.043 193.234 464.203 194.87 465.472 196.851C465.261 199.108 465.059 201.374 464.888 203.559C464.768 204.921 459.265 224.363 462.127 233.834Z" fill="#C7E5F2"/>
<path d="M422.625 140.051C422.625 140.051 423.402 149.522 426.516 150.158C429.63 150.795 428.866 146.771 428.866 146.771L428.431 142.274L422.625 140.051Z" fill="#002C54"/>
<path d="M436.984 174.373C430.887 173.642 433.165 167.666 434.001 166.294C434.223 166.223 435.271 165.898 435.351 165.848C435.361 165.838 435.371 165.838 435.371 165.838C435.573 165.675 435.724 165.431 435.845 165.126C436.439 163.551 436.168 160.411 436.147 160.207C436.147 160.197 436.147 160.197 436.147 160.197V159.628C436.247 159.252 436.349 158.897 436.429 158.561L439.634 156.021L446.416 150.645C446.416 150.645 444.612 159.638 446.064 165.31C446.175 165.736 446.396 166.336 446.961 166.671C446.961 166.681 446.971 166.671 446.971 166.671C447.152 166.793 447.374 166.874 447.646 166.915C449.309 167.706 446.991 175.572 436.984 174.373Z" fill="#E5918F"/>
<path d="M442.358 156.359C442.358 156.359 442.301 162.361 435.841 165.122C436.441 163.555 436.165 160.413 436.146 160.211L438.852 158.068L442.358 156.359Z" fill="#CC6362"/>
<path d="M424.114 141.399C424.114 141.399 425.523 161.049 430.784 162.719C430.784 162.719 437.488 163.355 442.301 156.827C443.687 154.946 445.44 154.523 446.012 152.251C446.942 148.562 448.253 141.757 446.58 137.656C444.198 131.815 424.34 127.178 424.114 141.399Z" fill="#E5918F"/>
<path d="M446.66 134.413C446.574 130.843 442.992 129.509 442.992 129.509C439.425 127.826 432.013 128.553 424.372 130.272C422.581 130.675 420.332 129.566 419.081 130.441C417.569 131.499 419.075 136.332 419.075 136.332C422.022 145.334 432.868 142.407 436.128 141.296C436.903 143.613 436.803 146.836 438.735 148.498C439.837 149.444 441.75 149.472 443.696 149.144C443.936 149.604 444.836 150.008 445.018 150.639C445.631 152.744 445.544 156.033 445.525 158.572L446.444 158.119C446.565 157.432 456.078 134.707 446.66 134.413Z" fill="#002C54"/>
<path d="M429.51 148.017C429.785 149.649 428.987 151.147 427.728 151.363C426.468 151.579 425.224 150.432 424.949 148.8C424.674 147.168 425.471 145.67 426.731 145.454C427.991 145.238 429.235 146.385 429.51 148.017Z" stroke="white" stroke-width="0.501" stroke-miterlimit="10"/>
<path d="M435.868 146.819C436.143 148.451 435.346 149.949 434.086 150.165C432.826 150.381 431.582 149.234 431.307 147.602C431.032 145.97 431.83 144.472 433.09 144.256C434.349 144.04 435.594 145.188 435.868 146.819Z" stroke="white" stroke-width="0.501" stroke-miterlimit="10"/>
<path d="M429.509 148.018C429.509 148.018 429.787 147.562 431.251 147.689" stroke="white" stroke-width="0.501" stroke-miterlimit="10"/>
<path d="M435.924 147.21L441.358 146.335" stroke="white" stroke-width="0.501" stroke-miterlimit="10"/>
<path d="M441.757 153.291C445.499 154.737 446.668 145.447 443.114 145.036C440.419 144.724 440.309 148.516 440.309 148.516C440.309 148.516 439.62 152.466 441.757 153.291Z" fill="#E5918F"/>
<g opacity="0.5">
<path d="M442.992 146.436C442.992 146.436 442.75 146.687 442.529 147.102C442.305 147.515 442.108 148.08 442.072 148.686C442.037 148.986 442.045 149.294 442.058 149.587C442.068 149.881 442.104 150.158 442.123 150.403C442.15 150.65 442.171 150.857 442.186 151.001C442.2 151.149 442.2 151.238 442.2 151.238C442.2 151.238 442.146 151.171 442.066 151.046C441.998 150.917 441.856 150.744 441.761 150.505C441.656 150.27 441.546 149.986 441.487 149.663C441.414 149.343 441.394 148.985 441.421 148.627C441.454 148.269 441.546 147.912 441.697 147.606C441.839 147.296 442.046 147.047 442.238 146.866C442.642 146.505 442.992 146.436 442.992 146.436Z" fill="#CC6362"/>
<path d="M443.576 148.2C443.576 148.2 443.423 148.216 443.214 148.296C443.004 148.371 442.745 148.52 442.55 148.721C442.35 148.917 442.222 149.16 442.157 149.351C442.089 149.539 442.067 149.672 442.067 149.672L441.45 149.449C441.45 149.449 441.523 149.29 441.674 149.081C441.819 148.869 442.063 148.616 442.355 148.455C442.644 148.288 442.96 148.213 443.192 148.196C443.424 148.173 443.576 148.2 443.576 148.2Z" fill="#CC6362"/>
</g>
<path d="M477.737 217.84C477.737 217.84 477.737 217.84 477.736 217.849C476.091 219.773 469.85 221.176 466.847 218.514C465.904 217.665 464.838 215.431 463.791 212.659C461.128 205.57 458.608 194.966 458.608 194.966L472.576 187.768C472.576 187.768 474.373 195.893 475.921 203.614C475.921 203.614 475.935 203.693 475.964 203.83C476.468 206.303 476.937 208.736 477.305 210.823C477.32 210.882 477.326 210.931 477.331 210.989C477.7 213.481 477.937 216.08 477.737 217.84Z" fill="#E5918F"/>
<path d="M453.335 185.1C454.684 190.757 458.924 201.476 458.924 201.476C461.893 201.973 465.876 201.421 469.176 200.226C472.985 198.846 475.705 195.949 475.705 195.949C475.705 195.949 472.893 187.979 470.37 182.254C468.105 177.114 466.745 175.196 465.765 174.177C464.288 172.618 461.908 170.83 460.219 170.018L453.335 185.1Z" fill="white"/>
<path d="M470.998 188.794L462.801 185.228L456.343 168.446C456.343 168.446 457.527 168.809 459.085 169.444C459.085 169.444 459.085 169.444 459.092 169.444C459.122 169.46 459.19 169.481 459.302 169.527C459.339 169.543 459.384 169.557 459.422 169.58C460.816 170.237 466.218 173.448 469.956 185.115C469.986 185.213 470.016 185.311 470.046 185.409C470.443 186.754 470.735 187.835 470.892 188.394C470.908 188.447 470.922 188.5 470.937 188.56C470.961 188.636 470.976 188.719 470.998 188.794Z" fill="white"/>
<path d="M477.74 217.84C477.74 217.84 477.74 217.84 477.739 217.849C477.618 218.88 477.336 219.622 476.831 219.884C476.75 219.936 475.604 220.625 475.523 220.677C473.815 221.73 470.718 223.521 466.865 225.192C457.522 229.263 443.948 233.984 436.631 236.147C436.631 236.147 435.908 234.062 434.781 231.891C434.781 231.891 441.401 228.791 447.906 223.765C454.422 218.751 463.792 212.659 463.792 212.659L466.159 209.852C466.159 209.852 474.572 202.044 475.923 203.615C475.923 203.615 475.936 203.694 475.965 203.83C476.166 204.645 476.833 207.641 477.306 210.824C477.322 210.883 477.327 210.932 477.333 210.99C477.702 213.482 477.939 216.081 477.74 217.84Z" fill="#E5918F"/>
<path d="M435.749 231.414C435.749 231.414 434.104 232.413 432.428 232.057C431.501 231.86 431.127 231.478 430.441 231.357C429.756 231.236 427.93 231.009 427.026 230.561C426.122 230.114 425.769 230.064 425.801 230.979C425.833 231.895 427.616 232.686 428.1 232.94C428.584 233.194 429.191 234.005 429.256 234.107C429.321 234.21 426.283 235.813 425.467 235.487C425.467 235.487 425.224 236.225 425.362 236.636C425.5 237.048 426.125 237.192 426.173 237.399C426.222 237.606 426.029 238.03 426.165 238.358C426.301 238.686 426.858 238.688 427.083 239.222C427.308 239.755 427.06 239.764 427.224 240.32C427.388 240.878 428.094 240.977 428.228 241.264C428.362 241.552 428.291 241.887 428.587 242.085C428.883 242.283 431.615 241.398 432.613 240.968C433.61 240.537 436.275 236.668 439.224 235.349L435.749 231.414Z" fill="#E5918F"/>
<path d="M449.71 248.684H428.462V246.588H449.71C450.285 246.588 450.75 247.057 450.75 247.636C450.75 248.215 450.285 248.684 449.71 248.684Z" fill="#375F84"/>
<path d="M438.215 248.684H385.012C384.375 248.684 383.815 248.255 383.645 247.637L372.756 208.107C372.516 207.233 373.168 206.367 374.069 206.367H425.517C426.717 206.367 427.768 207.173 428.089 208.337L438.939 247.725C439.07 248.207 438.71 248.684 438.215 248.684Z" fill="#375F84"/>
<path d="M436.289 248.684H383.086C382.449 248.684 381.89 248.255 381.719 247.637L370.831 208.107C370.59 207.233 371.242 206.367 372.143 206.367H423.592C424.791 206.367 425.842 207.173 426.163 208.337L437.013 247.725C437.145 248.207 436.785 248.684 436.289 248.684Z" fill="#467CDB"/>
<path d="M225.427 223.143L231.59 216.771C231.59 216.771 231.803 213.93 232.139 213.33C232.474 212.731 233.341 210.512 233.773 210.27C234.205 210.028 235.069 210.27 235.069 210.27C235.069 210.27 235.925 209.98 236.308 209.98C236.693 209.98 237.411 210.334 237.411 210.334C237.411 210.334 238.332 210.271 238.716 210.271C239.1 210.271 239.223 210.379 239.223 210.379C239.223 210.379 240.709 208.656 241.429 208.076C242.148 207.495 243.249 206.426 243.575 206.43C243.883 206.433 244.018 206.979 243.794 207.56C243.57 208.141 242.595 209.077 242.595 209.077L239.787 213.369C239.787 213.369 240.267 213.175 240.523 213.014C240.779 212.853 242.492 211.239 242.595 211.175C242.699 211.11 243.467 210.594 243.914 211.11C244.362 211.626 240.975 215.719 240.43 216.267C239.886 216.816 236.772 218.405 236.772 218.405C236.772 218.405 233.484 224.369 233.164 224.757C232.845 225.144 225.427 223.143 225.427 223.143Z" fill="#E49191"/>
<path d="M231.226 193.731C231.226 193.731 227.784 213.841 224.543 214.308C224.543 214.308 211.607 214.834 208.726 199.009C206.227 185.285 216.251 182.358 220.94 183.409C225.628 184.457 232.233 185.14 231.226 193.731Z" fill="#E49191"/>
<path d="M219.795 211.091C219.795 211.091 217.981 213.555 217.347 219.522C217.347 219.522 211.96 220.299 206.992 217.719C206.992 217.719 209.669 209.302 209.997 200.164" fill="#E49191"/>
<path d="M216.145 180.041C209.076 181.616 209.642 186.057 209.642 186.057C206.332 186.883 205.621 188.261 205.648 194.421C205.675 200.582 207.886 207.979 209.105 208.581C210.324 209.183 217.235 209.212 217.812 209C218.389 208.789 220.807 203.138 220.244 202.143C219.679 201.149 220.272 197.238 221.881 197.09C223.491 196.942 223.176 199.459 223.176 199.459L224.499 199.166L225.519 196.64C234.861 197.201 237.275 186.465 237.275 186.465C235.031 184.99 223.215 178.466 216.145 180.041Z" fill="#002C54"/>
<path d="M137.676 316.178L144.823 317.221L142.456 325.637L134.715 323.668C134.715 323.668 131.565 319.363 136.321 316.178C136.55 316.024 137.301 316.093 137.676 316.178Z" fill="#E5918F"/>
<path d="M191.024 294.56L180.489 262.393C180.489 262.393 177.296 261.245 175.66 262.393C175.66 262.393 164.685 268.344 165.856 285.313C166.739 298.106 169.418 311.98 170.503 317.545L142.395 316.497C142.395 316.497 138.927 320.653 141.171 326.064C141.171 326.064 176.488 335.642 181.464 336.528C185.507 337.247 189.933 337.802 192.07 335.956C195.835 332.703 191.024 294.56 191.024 294.56Z" fill="black"/>
<path d="M170.953 316.178L178.101 317.221L175.733 325.637L167.992 323.668C167.992 323.668 164.843 319.363 169.598 316.178C169.827 316.024 170.579 316.093 170.953 316.178Z" fill="#E5918F"/>
<path d="M168.361 320.591C168.201 322.248 169.638 323.741 169.375 324.154C169.112 324.568 164.308 332.697 164.308 332.697C164.308 332.697 167.935 334.29 167.35 336.591H158.164C158.164 336.591 155.765 334.407 155.823 331.28C155.823 331.28 156.447 327.681 158.086 324.495C159.725 321.308 163.448 314.115 163.448 314.115C163.448 314.115 164.578 313.654 166.51 314.174C168.773 314.782 170.954 316.179 170.954 316.179C170.954 316.179 168.756 316.497 168.361 320.591Z" fill="#467CDB"/>
<path d="M241.945 329.197C239.677 320.664 218.338 284.231 211.119 274.394C196.291 267.902 180.489 262.393 180.489 262.393C173.953 263.967 170.734 277.247 174.44 286.1C176.983 292.175 193.116 307.461 202.996 316.461L175.58 316.428C175.58 316.428 172.351 321.296 175.277 325.92C175.277 325.92 220.874 336.375 224.873 336.965C228.873 337.555 237.847 336.965 237.847 336.965C237.847 336.965 243.854 336.382 241.945 329.197Z" fill="#002C54"/>
<path d="M135.081 320.591C134.921 322.248 136.359 323.741 136.096 324.154C135.833 324.568 131.028 332.697 131.028 332.697C131.028 332.697 134.655 334.29 134.07 336.591H124.884C124.884 336.591 122.485 334.407 122.544 331.28C122.544 331.28 123.168 327.681 124.807 324.495C126.445 321.308 130.169 314.115 130.169 314.115C130.169 314.115 131.299 313.654 133.231 314.174C135.493 314.782 137.675 316.179 137.675 316.179C137.675 316.179 135.477 316.497 135.081 320.591Z" fill="#467CDB"/>
<path d="M276.273 216.95L261.568 243.035L251.037 232.449L242.32 245.533L244.851 246.759L243.941 247.523C243.941 247.523 264.264 257.504 266.7 255.302C269.135 253.101 280.482 219.915 280.482 219.915L276.273 216.95Z" fill="#E49191"/>
<path d="M252.913 234.105C252.913 234.105 250.137 245.915 244.585 251.514L230.378 246.06C230.378 246.06 223.786 257.241 217.338 265.813C214.86 269.123 214.037 273.783 211.125 274.394C210.944 274.331 210.773 274.276 210.592 274.23C202.697 271.841 191.05 274.376 181.437 270.774C170.82 266.789 172.882 264.545 172.882 264.545C172.882 264.545 179.321 252.845 182.974 240.452C184.602 234.971 185.732 229.892 186.483 225.925C187.83 218.903 193.41 213.413 200.445 212.456C200.527 212.446 200.599 212.428 200.681 212.419C208.729 211.389 229.799 213.896 233.896 215.666C237.992 217.435 252.913 234.105 252.913 234.105Z" fill="#467CDB"/>
<path d="M230.378 246.061C230.378 246.061 223.785 257.241 217.338 265.813C214.86 269.124 214.037 273.784 211.125 274.395C212.4 273.939 214.516 267.172 215.267 265.649C216.026 264.135 217.229 262.612 219.834 257.296C222.429 251.97 225.952 244.165 225.952 244.165L230.378 246.061Z" fill="#5996EF"/>
<path d="M202.996 316.461C202.996 316.461 203.219 316.411 203.614 316.36C204.008 316.319 204.573 316.236 205.252 316.209C206.612 316.135 208.43 316.189 210.23 316.441C211.128 316.572 212.023 316.732 212.849 316.943C213.678 317.14 214.441 317.373 215.081 317.609C215.726 317.831 216.243 318.078 216.605 318.241C216.967 318.408 217.168 318.516 217.168 318.516C217.168 318.516 216.939 318.489 216.549 318.422C216.164 318.339 215.603 318.263 214.941 318.149C213.616 317.926 211.861 317.641 210.098 317.403C209.219 317.265 208.333 317.169 207.505 317.052C206.673 316.947 205.897 316.849 205.232 316.765C203.89 316.582 202.996 316.461 202.996 316.461Z" fill="black"/>
<path d="M287.264 207.35C287.027 207.326 285.519 208.546 284.791 209.149L285.63 207.529C285.63 207.529 286.738 206.45 287.137 205.857C287.536 205.264 287.326 204.671 287.011 204.639C286.79 204.617 285.463 205.678 284.696 206.31L284.865 205.984C284.865 205.984 285.973 204.905 286.372 204.312C286.771 203.719 286.561 203.126 286.246 203.095C285.932 203.063 283.381 205.222 283.381 205.222L282.138 206.899L283.075 205.064C283.075 205.064 283.569 204.456 283.897 203.793C284.226 203.13 283.988 202.928 283.806 202.706C283.623 202.484 281.906 203.775 281.467 204.29C281.029 204.806 279.64 206.896 279.531 207.192L278.096 210.186C278.005 209.319 277.86 207.834 277.759 206.888C277.612 205.525 276.389 205.203 276.346 205.866C276.304 206.529 275.622 209.79 275.776 211.558C275.931 213.326 276.225 214.487 276.334 215.482C276.444 216.477 275.421 218.465 275.421 218.465C275.421 218.465 279.513 221.028 280.189 220.261C280.866 219.494 282.305 217.79 283.002 216.643C283.958 215.067 284.603 212.995 284.603 212.995L285.882 210.241C285.882 210.241 286.991 209.161 287.389 208.568C287.788 207.974 287.578 207.381 287.264 207.35Z" fill="#E49191"/>
<path d="M522.156 124.293H474.169C471.094 124.293 468.601 126.807 468.601 129.909V141.341C468.601 144.201 470.723 146.563 473.467 146.912C473.869 146.963 474.169 147.308 474.169 147.716V153.974C474.169 154.336 474.63 154.484 474.839 154.19L479.726 147.298C479.878 147.083 480.123 146.956 480.385 146.956H522.156C525.231 146.956 527.724 144.441 527.724 141.34V129.908C527.724 126.807 525.231 124.293 522.156 124.293Z" stroke="white" stroke-width="0.8956" stroke-miterlimit="10"/>
<path d="M481.53 135.607C481.53 136.629 480.709 137.456 479.697 137.456C478.684 137.456 477.864 136.628 477.864 135.607C477.864 134.586 478.685 133.759 479.697 133.759C480.709 133.759 481.53 134.586 481.53 135.607Z" stroke="white" stroke-width="0.8956" stroke-miterlimit="10"/>
<path d="M490.763 135.607C490.763 136.629 489.942 137.456 488.93 137.456C487.917 137.456 487.097 136.628 487.097 135.607C487.097 134.586 487.918 133.759 488.93 133.759C489.942 133.759 490.763 134.586 490.763 135.607Z" stroke="white" stroke-width="0.8956" stroke-miterlimit="10"/>
<path d="M499.996 135.607C499.996 136.629 499.175 137.456 498.163 137.456C497.15 137.456 496.329 136.628 496.329 135.607C496.329 134.586 497.15 133.759 498.163 133.759C499.175 133.759 499.996 134.586 499.996 135.607Z" stroke="white" stroke-width="0.8956" stroke-miterlimit="10"/>
<path d="M509.228 135.607C509.228 136.629 508.406 137.456 507.394 137.456C506.382 137.456 505.561 136.628 505.561 135.607C505.561 134.586 506.382 133.759 507.394 133.759C508.406 133.759 509.228 134.586 509.228 135.607Z" stroke="white" stroke-width="0.8956" stroke-miterlimit="10"/>
<path d="M518.46 135.607C518.46 136.629 517.639 137.456 516.626 137.456C515.613 137.456 514.793 136.628 514.793 135.607C514.793 134.586 515.614 133.759 516.626 133.759C517.638 133.759 518.46 134.586 518.46 135.607Z" stroke="white" stroke-width="0.8956" stroke-miterlimit="10"/>
<path d="M142.977 174.411H190.963C194.039 174.411 196.532 176.925 196.532 180.026V191.458C196.532 194.32 194.41 196.681 191.666 197.029C191.263 197.08 190.963 197.425 190.963 197.834V204.091C190.963 204.453 190.503 204.602 190.294 204.307L185.406 197.415C185.254 197.201 185.009 197.074 184.748 197.074H142.977C139.901 197.074 137.408 194.56 137.408 191.458V180.026C137.408 176.925 139.901 174.411 142.977 174.411Z" stroke="white" stroke-width="0.8956" stroke-miterlimit="10"/>
<path d="M183.602 185.725C183.602 186.746 184.423 187.573 185.435 187.573C186.447 187.573 187.269 186.745 187.269 185.725C187.269 184.703 186.447 183.876 185.435 183.876C184.423 183.875 183.602 184.703 183.602 185.725Z" stroke="white" stroke-width="0.8956" stroke-miterlimit="10"/>
<path d="M174.369 185.725C174.369 186.746 175.19 187.573 176.202 187.573C177.215 187.573 178.035 186.745 178.035 185.725C178.035 184.703 177.214 183.876 176.202 183.876C175.19 183.875 174.369 184.703 174.369 185.725Z" stroke="white" stroke-width="0.8956" stroke-miterlimit="10"/>
<path d="M165.137 185.725C165.137 186.746 165.958 187.573 166.97 187.573C167.983 187.573 168.803 186.745 168.803 185.725C168.803 184.703 167.982 183.876 166.97 183.876C165.958 183.875 165.137 184.703 165.137 185.725Z" stroke="white" stroke-width="0.8956" stroke-miterlimit="10"/>
<path d="M155.903 185.725C155.903 186.746 156.724 187.573 157.736 187.573C158.749 187.573 159.569 186.745 159.569 185.725C159.569 184.703 158.748 183.876 157.736 183.876C156.724 183.875 155.903 184.703 155.903 185.725Z" stroke="white" stroke-width="0.8956" stroke-miterlimit="10"/>
<path d="M146.672 185.725C146.672 186.746 147.493 187.573 148.506 187.573C149.519 187.573 150.339 186.745 150.339 185.725C150.339 184.703 149.518 183.876 148.506 183.876C147.492 183.875 146.672 184.703 146.672 185.725Z" stroke="white" stroke-width="0.8956" stroke-miterlimit="10"/>
<path d="M432.779 97.9196H345.318C340.494 97.9196 336.584 93.9763 336.584 89.1121C336.584 84.2478 340.494 80.3046 345.318 80.3046H432.779C437.603 80.3046 441.513 84.2478 441.513 89.1121C441.513 93.9763 437.603 97.9196 432.779 97.9196Z" fill="white" stroke="#7E22CE" stroke-width="0.8956" stroke-miterlimit="10"/>
<path d="M431.497 88.5056C431.497 91.0928 429.418 93.1893 426.853 93.1893C424.287 93.1893 422.208 91.0928 422.208 88.5056C422.208 85.9184 424.287 83.8219 426.853 83.8219C429.418 83.8219 431.497 85.9184 431.497 88.5056Z" stroke="#7E22CE" stroke-width="1.6716" stroke-miterlimit="10"/>
<path d="M430.136 91.8169L432.7 94.4031" stroke="#7E22CE" stroke-width="1.6716" stroke-miterlimit="10" stroke-linecap="round"/>
<path d="M300.292 337.463H278.289C274.439 337.463 271.318 334.316 271.318 330.434V308.245C271.318 304.363 274.439 301.216 278.289 301.216H300.292C304.141 301.216 307.262 304.363 307.262 308.245V330.434C307.262 334.316 304.141 337.463 300.292 337.463Z" fill="#B400B8"/>
<path d="M293.741 337.463H271.738C267.888 337.463 264.768 334.316 264.768 330.434V308.246C264.768 304.364 267.888 301.216 271.738 301.216H293.741C297.59 301.216 300.711 304.364 300.711 308.246V330.434C300.711 334.316 297.59 337.463 293.741 337.463Z" fill="#7E22CE"/>
<path d="M278.494 312.498L288.811 318.505C289.448 318.876 289.448 319.803 288.811 320.174L278.494 326.181C277.857 326.552 277.061 326.088 277.061 325.346V313.333C277.061 312.591 277.857 312.128 278.494 312.498Z" fill="white"/>
<path d="M527.891 337.463H499.127C494.095 337.463 490.016 333.349 490.016 328.274V299.268C490.016 294.193 494.095 290.08 499.127 290.08H527.891C532.923 290.08 537.003 294.193 537.003 299.268V328.274C537.003 333.348 532.923 337.463 527.891 337.463Z" fill="#B400B8"/>
<path d="M519.328 337.463H490.565C485.532 337.463 481.453 333.349 481.453 328.274V299.268C481.453 294.193 485.532 290.08 490.565 290.08H519.328C524.361 290.08 528.44 294.193 528.44 299.268V328.274C528.44 333.348 524.361 337.463 519.328 337.463Z" fill="#7E22CE"/>
<path d="M510.592 301.705C510.592 304.85 508.064 307.398 504.946 307.398C501.828 307.398 499.301 304.85 499.301 301.705C499.301 298.561 501.828 296.012 504.946 296.012C508.064 296.012 510.592 298.561 510.592 301.705Z" fill="white"/>
<path d="M516.715 320.98V329.383C516.715 330.143 516.105 330.759 515.351 330.759H494.541C493.787 330.759 493.177 330.143 493.177 329.383V320.98C493.177 314.426 498.445 309.112 504.945 309.112C511.447 309.113 516.715 314.426 516.715 320.98Z" fill="white"/>
<path d="M399.868 108.067H381.394C380.627 108.067 380.006 107.44 380.006 106.667C380.006 105.894 380.627 105.267 381.394 105.267H399.868C400.635 105.267 401.256 105.894 401.256 106.667C401.256 107.439 400.635 108.067 399.868 108.067Z" fill="#F0F4FF"/>
<path d="M418.349 108.067H404.98C404.213 108.067 403.592 107.441 403.592 106.667C403.592 105.894 404.213 105.267 404.98 105.267H418.349C419.116 105.267 419.737 105.894 419.737 106.667C419.738 107.44 419.116 108.067 418.349 108.067Z" fill="#F0F4FF"/>
<path d="M389.243 114.223H381.395C380.628 114.223 380.007 113.596 380.007 112.823C380.007 112.049 380.628 111.423 381.395 111.423H389.243C390.01 111.423 390.632 112.049 390.632 112.823C390.632 113.595 390.009 114.223 389.243 114.223Z" fill="#F0F4FF"/>
<path d="M418.35 114.223H393.903C393.136 114.223 392.515 113.596 392.515 112.823C392.515 112.049 393.136 111.423 393.903 111.423H418.35C419.117 111.423 419.738 112.049 419.738 112.823C419.739 113.595 419.117 114.223 418.35 114.223Z" fill="#F0F4FF"/>
<path d="M405.746 120.378H381.394C380.627 120.378 380.006 119.752 380.006 118.978C380.006 118.205 380.627 117.578 381.394 117.578H405.746C406.513 117.578 407.134 118.205 407.134 118.978C407.134 119.751 406.513 120.378 405.746 120.378Z" fill="#F0F4FF"/>
<path d="M418.35 120.378H410.5C409.734 120.378 409.112 119.752 409.112 118.978C409.112 118.205 409.734 117.578 410.5 117.578H418.35C419.117 117.578 419.738 118.205 419.738 118.978C419.739 119.751 419.117 120.378 418.35 120.378Z" fill="#F0F4FF"/>
<path d="M165.936 251.052H101.445C99.5365 251.052 97.9883 249.49 97.9883 247.565V214.736C97.9883 212.81 99.5365 211.249 101.445 211.249H165.936C167.845 211.249 169.393 212.81 169.393 214.736V247.565C169.394 249.491 167.846 251.052 165.936 251.052Z" fill="#B400B8"/>
<path d="M101.023 216.626H166.36" stroke="white" stroke-width="0.8956" stroke-miterlimit="10" stroke-linecap="round"/>
<path d="M164.635 214.688C165.072 214.688 165.426 214.331 165.426 213.89C165.426 213.449 165.072 213.092 164.635 213.092C164.198 213.092 163.844 213.449 163.844 213.89C163.844 214.331 164.198 214.688 164.635 214.688Z" fill="white"/>
<path d="M160.508 214.688C160.945 214.688 161.299 214.331 161.299 213.89C161.299 213.449 160.945 213.092 160.508 213.092C160.071 213.092 159.717 213.449 159.717 213.89C159.717 214.331 160.071 214.688 160.508 214.688Z" fill="white"/>
<path d="M156.383 214.688C156.82 214.688 157.174 214.331 157.174 213.89C157.174 213.449 156.82 213.092 156.383 213.092C155.946 213.092 155.592 213.449 155.592 213.89C155.592 214.331 155.946 214.688 156.383 214.688Z" fill="white"/>
<path d="M113.203 221.984H102.116C101.513 221.984 101.023 221.49 101.023 220.882C101.023 220.274 101.513 219.78 102.116 219.78H113.203C113.806 219.78 114.295 220.274 114.295 220.882C114.295 221.49 113.806 221.984 113.203 221.984Z" fill="#5E1080"/>
<path d="M113.203 227.075H102.116C101.513 227.075 101.023 226.582 101.023 225.973C101.023 225.365 101.513 224.872 102.116 224.872H113.203C113.806 224.872 114.295 225.365 114.295 225.973C114.295 226.583 113.806 227.075 113.203 227.075Z" fill="#5E1080"/>
<path d="M113.203 232.167H102.116C101.513 232.167 101.023 231.674 101.023 231.065C101.023 230.457 101.513 229.964 102.116 229.964H113.203C113.806 229.964 114.295 230.457 114.295 231.065C114.295 231.674 113.806 232.167 113.203 232.167Z" fill="#5E1080"/>
<path d="M113.203 237.259H102.116C101.513 237.259 101.023 236.765 101.023 236.157C101.023 235.549 101.513 235.056 102.116 235.056H113.203C113.806 235.056 114.295 235.549 114.295 236.157C114.295 236.765 113.806 237.259 113.203 237.259Z" fill="#5E1080"/>
<path d="M113.203 242.35H102.116C101.513 242.35 101.023 241.857 101.023 241.249C101.023 240.64 101.513 240.147 102.116 240.147H113.203C113.806 240.147 114.295 240.64 114.295 241.249C114.295 241.858 113.806 242.35 113.203 242.35Z" fill="#5E1080"/>
<path d="M113.203 247.442H102.116C101.513 247.442 101.023 246.949 101.023 246.341C101.023 245.732 101.513 245.239 102.116 245.239H113.203C113.806 245.239 114.295 245.732 114.295 246.341C114.295 246.949 113.806 247.442 113.203 247.442Z" fill="#5E1080"/>
<path d="M165.267 221.984H117.49C116.887 221.984 116.397 221.49 116.397 220.882C116.397 220.274 116.887 219.78 117.49 219.78H165.267C165.87 219.78 166.36 220.274 166.36 220.882C166.361 221.49 165.871 221.984 165.267 221.984Z" fill="#7E22CE"/>
<path d="M165.267 227.075H117.49C116.887 227.075 116.397 226.582 116.397 225.973C116.397 225.365 116.887 224.872 117.49 224.872H165.267C165.87 224.872 166.36 225.365 166.36 225.973C166.361 226.583 165.871 227.075 165.267 227.075Z" fill="#7E22CE"/>
<path d="M165.267 232.167H117.49C116.887 232.167 116.397 231.674 116.397 231.065C116.397 230.457 116.887 229.964 117.49 229.964H165.267C165.87 229.964 166.36 230.457 166.36 231.065C166.361 231.674 165.871 232.167 165.267 232.167Z" fill="#7E22CE"/>
<path d="M165.267 237.259H117.49C116.887 237.259 116.397 236.765 116.397 236.157C116.397 235.549 116.887 235.056 117.49 235.056H165.267C165.87 235.056 166.36 235.549 166.36 236.157C166.361 236.765 165.871 237.259 165.267 237.259Z" fill="#7E22CE"/>
<path d="M165.267 242.35H117.49C116.887 242.35 116.397 241.857 116.397 241.249C116.397 240.64 116.887 240.147 117.49 240.147H165.267C165.87 240.147 166.36 240.64 166.36 241.249C166.361 241.858 165.871 242.35 165.267 242.35Z" fill="#7E22CE"/>
<path d="M165.267 247.442H117.49C116.887 247.442 116.397 246.949 116.397 246.341C116.397 245.732 116.887 245.239 117.49 245.239H165.267C165.87 245.239 166.36 245.732 166.36 246.341C166.361 246.949 165.871 247.442 165.267 247.442Z" fill="#7E22CE"/>
<path d="M500.714 43.1153C504.496 27.1944 494.764 11.1957 478.976 7.38124C463.189 3.56677 447.324 13.381 443.541 29.3019C439.759 45.2228 449.491 61.2215 465.279 65.036C481.066 68.8505 496.931 59.0362 500.714 43.1153Z" stroke="#DEE3FC" stroke-width="0.7896" stroke-miterlimit="10"/>
<path d="M482.468 59.805C495.376 54.0463 501.21 38.8262 495.499 25.81C489.789 12.7938 474.696 6.91049 461.789 12.6692C448.881 18.4279 443.047 33.648 448.758 46.6642C454.468 59.6804 469.561 65.5638 482.468 59.805Z" fill="#7E22CE"/>
<path d="M474.449 36.219C474.449 37.5149 473.407 38.5645 472.123 38.5645C470.838 38.5645 469.797 37.514 469.797 36.219C469.797 34.9232 470.839 33.8735 472.123 33.8735C473.407 33.8726 474.449 34.9232 474.449 36.219Z" fill="white"/>
<path d="M471.868 35.7577C471.516 35.9537 471.074 35.8261 470.878 35.4713L463.363 21.8004C463.168 21.4457 463.295 20.9998 463.647 20.8028C463.998 20.6067 464.441 20.7344 464.636 21.0882L472.152 34.7591C472.346 35.1147 472.219 35.5616 471.868 35.7577Z" fill="white"/>
<path d="M472.491 36.591C472.775 36.3046 473.236 36.3046 473.52 36.591L480.022 43.1478C480.306 43.4342 480.306 43.8993 480.022 44.1856C479.738 44.472 479.277 44.472 478.993 44.1856L472.491 37.6288C472.207 37.3424 472.207 36.8773 472.491 36.591Z" fill="white"/>
<path d="M472.278 15.591V12.6272" stroke="white" stroke-width="2" stroke-miterlimit="10" stroke-linecap="round"/>
<path d="M492.577 36.3763H495.516" stroke="white" stroke-width="2" stroke-miterlimit="10" stroke-linecap="round"/>
<path d="M471.964 56.8457V59.8095" stroke="white" stroke-width="2" stroke-miterlimit="10" stroke-linecap="round"/>
<path d="M451.665 36.0608H448.726" stroke="white" stroke-width="2" stroke-miterlimit="10" stroke-linecap="round"/>
<g opacity="0.5">
<path d="M462.028 18.2755L460.559 15.7084" stroke="#DEE3FC" stroke-miterlimit="10" stroke-linecap="round"/>
<path d="M489.914 26.0418L492.459 24.5599" stroke="#DEE3FC" stroke-miterlimit="10" stroke-linecap="round"/>
<path d="M482.213 54.1614L483.682 56.7285" stroke="#DEE3FC" stroke-miterlimit="10" stroke-linecap="round"/>
<path d="M454.328 46.3961L451.782 47.878" stroke="#DEE3FC" stroke-miterlimit="10" stroke-linecap="round"/>
</g>
<g opacity="0.5">
<path d="M454.485 25.7677L451.94 24.2858" stroke="#DEE3FC" stroke-miterlimit="10" stroke-linecap="round"/>
<path d="M482.485 18.4333L483.955 15.8662" stroke="#DEE3FC" stroke-miterlimit="10" stroke-linecap="round"/>
<path d="M489.76 46.6686L492.305 48.1505" stroke="#DEE3FC" stroke-miterlimit="10" stroke-linecap="round"/>
<path d="M461.76 54.0033L460.29 56.5704" stroke="#DEE3FC" stroke-miterlimit="10" stroke-linecap="round"/>
</g>
<path d="M122.872 185.396H90.5928C85.8135 185.396 81.9395 181.489 81.9395 176.67V144.118C81.9395 139.299 85.8135 135.392 90.5928 135.392H122.872C127.651 135.392 131.525 139.299 131.525 144.118V176.67C131.525 181.488 127.651 185.396 122.872 185.396Z" fill="#B400B8"/>
<path d="M120.748 181.065H85.0281C81.1992 181.065 78.0947 177.935 78.0947 174.073V138.051C78.0947 134.19 81.1983 131.059 85.0281 131.059H120.748C124.577 131.059 127.682 134.189 127.682 138.051V174.073C127.681 177.934 124.577 181.065 120.748 181.065Z" fill="#7E89FD" stroke="#DEE3FC" stroke-miterlimit="10"/>
<path d="M111.475 150.337H111.217V147.472C111.217 142.77 107.425 138.946 102.762 138.946C98.0996 138.946 94.3078 142.77 94.3078 147.472V150.337H94.2508C92.9405 150.337 91.8779 151.408 91.8779 152.73V163.524C91.8779 164.846 92.9405 165.917 94.2508 165.917H111.475C112.786 165.917 113.848 164.846 113.848 163.524V152.73C113.848 151.407 112.786 150.337 111.475 150.337ZM96.4492 147.472C96.4492 143.962 99.2824 141.106 102.762 141.106C106.242 141.106 109.075 143.962 109.075 147.472V150.337H96.4483L96.4492 147.472Z" fill="#DEE3FC"/>
<path d="M105.648 155.885C105.648 154.161 104.094 152.804 102.322 153.16C101.277 153.37 100.411 154.234 100.193 155.285C99.9307 156.553 100.525 157.709 101.498 158.283C101.695 158.4 101.808 158.619 101.748 158.842L101.268 160.628C100.983 161.69 101.776 162.735 102.867 162.735C103.958 162.735 104.752 161.69 104.467 160.628L103.992 158.861C103.931 158.635 104.047 158.413 104.249 158.298C105.083 157.82 105.648 156.921 105.648 155.885Z" fill="#7E89FD"/>
<path d="M112.83 169.702H92.8953C92.3337 169.702 91.8779 169.242 91.8779 168.676C91.8779 168.11 92.3337 167.65 92.8953 167.65H112.83C113.391 167.65 113.847 168.11 113.847 168.676C113.847 169.243 113.391 169.702 112.83 169.702Z" fill="#DEE3FC"/>
<path d="M112.83 173.179H92.8953C92.3337 173.179 91.8779 172.719 91.8779 172.153C91.8779 171.587 92.3337 171.127 92.8953 171.127H112.83C113.391 171.127 113.847 171.587 113.847 172.153C113.847 172.719 113.391 173.179 112.83 173.179Z" fill="#DEE3FC"/>
<path d="M513.456 244.175H494.453C491.64 244.175 489.358 241.875 489.358 239.037V219.873C489.358 217.036 491.639 214.737 494.453 214.737H513.456C516.27 214.737 518.55 217.036 518.55 219.873V239.037C518.55 241.875 516.27 244.175 513.456 244.175Z" fill="#B400B8"/>
<path d="M512.207 241.625H491.178C488.923 241.625 487.097 239.782 487.097 237.509V216.303C487.097 214.03 488.924 212.188 491.178 212.188H512.207C514.461 212.188 516.288 214.031 516.288 216.303V237.509C516.288 239.782 514.461 241.625 512.207 241.625Z" fill="#7E89FD" stroke="#DEE3FC" stroke-miterlimit="10"/>
<path d="M495.795 235.696C495.713 235.696 495.631 235.685 495.548 235.662C495.067 235.526 494.788 235.022 494.924 234.537L499.339 218.778C499.475 218.292 499.977 218.008 500.454 218.149C500.935 218.285 501.215 218.789 501.078 219.273L496.663 235.032C496.552 235.435 496.189 235.696 495.795 235.696Z" fill="white"/>
<path d="M503.177 235.696C503.095 235.696 503.012 235.685 502.931 235.662C502.45 235.526 502.171 235.021 502.307 234.537L506.723 218.778C506.858 218.292 507.36 218.008 507.838 218.149C508.319 218.285 508.598 218.789 508.462 219.273L504.046 235.032C503.934 235.434 503.571 235.696 503.177 235.696Z" fill="white"/>
<path d="M509.505 224.246H493.878C493.378 224.246 492.974 223.838 492.974 223.334C492.974 222.83 493.378 222.422 493.878 222.422H509.505C510.005 222.422 510.41 222.83 510.41 223.334C510.41 223.838 510.005 224.246 509.505 224.246Z" fill="white"/>
<path d="M509.505 231.444H493.878C493.378 231.444 492.974 231.037 492.974 230.533C492.974 230.028 493.378 229.621 493.878 229.621H509.505C510.005 229.621 510.41 230.028 510.41 230.533C510.41 231.037 510.005 231.444 509.505 231.444Z" fill="white"/>
<path d="M161.048 150.663H149.746C149.061 150.663 148.507 150.103 148.507 149.414C148.507 148.724 149.062 148.165 149.746 148.165H161.048C161.732 148.165 162.287 148.724 162.287 149.414C162.287 150.103 161.732 150.663 161.048 150.663Z" fill="#F0F4FF"/>
<path d="M172.433 156.211H149.746C149.061 156.211 148.507 155.651 148.507 154.962C148.507 154.271 149.062 153.712 149.746 153.712H172.433C173.118 153.712 173.672 154.272 173.672 154.962C173.672 155.652 173.118 156.211 172.433 156.211Z" fill="#F0F4FF"/>
<path d="M152.425 161.759H149.746C149.061 161.759 148.507 161.2 148.507 160.51C148.507 159.82 149.062 159.26 149.746 159.26H152.425C153.11 159.26 153.664 159.82 153.664 160.51C153.664 161.199 153.11 161.759 152.425 161.759Z" fill="#F0F4FF"/>
<path d="M172.433 161.759H156.635C155.951 161.759 155.396 161.2 155.396 160.51C155.396 159.82 155.952 159.26 156.635 159.26H172.433C173.117 159.26 173.672 159.82 173.672 160.51C173.672 161.199 173.117 161.759 172.433 161.759Z" fill="#F0F4FF"/>
<path d="M172.433 150.663H165.582C164.897 150.663 164.343 150.103 164.343 149.414C164.343 148.724 164.898 148.165 165.582 148.165H172.433C173.117 148.165 173.672 148.724 173.672 149.414C173.672 150.103 173.117 150.663 172.433 150.663Z" fill="#F0F4FF"/>
<path d="M108.697 321.127C107.225 321.127 105.847 321.535 104.668 322.244C104.195 317.989 100.616 314.68 96.2703 314.68C91.6023 314.68 87.8177 318.497 87.8177 323.204C87.8177 323.52 87.8358 323.831 87.8693 324.138C87.4813 324.065 87.0825 324.025 86.6738 324.025C83.109 324.025 80.2197 326.938 80.2197 330.533C80.2197 334.128 83.109 337.042 86.6738 337.042H108.698C113.056 337.042 116.588 333.48 116.588 329.085C116.588 324.69 113.055 321.127 108.697 321.127Z" fill="white"/>
<path d="M52.685 286.952C52.4716 285.762 52.5005 284.544 52.798 283.373C53.7937 279.448 54.9331 272.069 52.4011 264.096C48.177 250.795 31.0566 239.015 31.0566 239.015C31.0566 239.015 35.7039 258.643 39.5246 267.001C42.3216 273.12 47.2148 280.083 49.9305 283.749C50.6838 284.767 51.2001 285.939 51.4244 287.188C54.1925 302.634 53.7919 314.59 53.7847 314.775L55.0697 314.825C55.076 314.639 55.4829 302.561 52.685 286.952Z" fill="#DEE3FC"/>
<path d="M66.3352 274.447C69.7363 263.604 71.3179 250.831 71.3179 250.831C71.3179 250.831 55.9673 263.604 54.7094 273.487C53.9389 279.541 54.8966 284.396 55.7557 287.253C56.1201 288.466 56.253 289.734 56.1183 290.995C54.5647 305.539 55.7819 316.685 55.8009 316.855L56.9566 316.721C56.9376 316.558 55.8081 306.187 57.1384 292.444C57.3201 290.561 58.0725 288.782 59.2535 287.314C61.4501 284.58 64.5908 280.008 66.3352 274.447Z" fill="#B4C1EF"/>
<path d="M81.9386 250.327C81.9386 250.327 65.3969 256.517 61.0716 270.137C58.4392 278.426 59.6826 286.088 60.7117 290.057C61.0002 291.171 60.9848 292.333 60.7081 293.45C56.8331 309.124 56.7734 325.348 56.7734 325.563H58.0901C58.0901 325.352 58.1498 309.514 61.8918 294.143C62.2635 292.617 62.9236 291.182 63.8533 289.918C66.6747 286.087 71.4757 279.192 74.2555 273.111C78.1694 264.553 81.9386 250.327 81.9386 250.327Z" fill="#DEE3FC"/>
<path d="M52.7539 307.793C52.3425 302.092 50.8015 296.959 48.9341 292.653C48.5606 291.791 48.4286 290.848 48.548 289.914C48.7795 288.116 48.8744 285.322 48.1618 281.773C46.8198 275.09 38.0245 260.654 25.29 259.808C25.29 259.808 29.6841 266.931 31.9449 272.892C34.8052 280.432 38.8881 288.32 45.6596 291.347C46.8506 291.88 47.7829 292.877 48.2794 294.091C49.9117 298.08 51.222 302.741 51.5928 307.878L52.7539 307.793Z" fill="#B4C1EF"/>
<path d="M44.1427 337.038H65.157L70.6091 303.438C70.8506 301.95 69.712 300.6 68.2181 300.6H41.0816C39.5877 300.6 38.4492 301.95 38.6906 303.438L44.1427 337.038Z" fill="#DEE3FC"/>
<path d="M1 337.038H589" stroke="white" stroke-width="1.1144" stroke-miterlimit="10" stroke-linecap="round"/>
</svg>
